{"glyphs":{"0":{"ha":935,"x_min":0,"x_max":0,"o":"m 294 972 l 138 793 l 138 208 l 322 208 l 322 793 l 803 793 l 893 972 z m 614 179 l 135 179 l 43 0 l 642 0 l 799 179 l 799 753 l 614 753 z "},"1":{"ha":354,"x_min":0,"x_max":0,"o":"m 83 353 l 83 -1 l 268 -1 l 271 413 z m 268 972 l 83 972 l 83 403 l 271 464 z "},"2":{"ha":879,"x_min":0,"x_max":0,"o":"m 640 972 l 42 972 l 133 793 l 618 793 l 618 590 l 326 590 b 321 589 324 590 322 589 l 321 590 l 135 590 l 135 0 l 450 0 l 497 185 l 321 185 l 321 407 b 326 406 322 406 324 406 l 794 406 b 804 414 800 406 804 410 l 804 793 z m 507 0 l 801 0 l 801 185 l 557 185 z "},"3":{"ha":850,"x_min":0,"x_max":0,"o":"m 210 978 l 56 799 l 718 799 l 810 978 z m 531 192 l 56 192 b 47 182 51 192 47 188 l 47 15 b 56 6 47 10 51 6 l 531 6 l 531 4 l 715 4 l 715 758 l 531 758 z m 485 406 b 493 414 489 406 493 410 l 493 582 b 485 590 493 586 489 590 l 253 590 b 244 582 249 590 244 586 l 244 414 b 253 406 244 410 249 406 z "},"4":{"ha":872,"x_min":0,"x_max":0,"o":"m 789 4 l 789 978 l 603 978 l 603 4 z m 563 596 l 306 596 l 306 753 l 121 753 l 121 419 b 129 411 121 415 125 411 l 563 411 b 572 419 568 411 572 415 l 572 588 b 563 596 572 592 568 596 z m 304 801 l 304 978 l 28 978 l 124 801 z "},"5":{"ha":881,"x_min":0,"x_max":0,"o":"m 746 793 l 838 972 l 239 972 l 76 793 l 76 414 b 85 406 76 410 81 406 l 553 406 b 558 407 556 406 557 406 l 558 185 l 382 185 l 429 0 l 744 0 l 744 590 l 558 590 l 558 589 b 553 590 557 589 556 590 l 261 590 l 261 793 z m 75 185 l 75 0 l 372 0 l 322 185 z "},"6":{"ha":875,"x_min":0,"x_max":0,"o":"m 799 793 l 643 972 l 44 972 l 136 793 z m 792 590 l 358 590 b 349 582 353 590 349 586 l 349 414 b 358 406 349 410 353 406 l 615 406 l 615 185 l 318 185 l 318 753 l 132 753 l 132 -1 l 318 -1 l 318 0 l 800 0 l 800 582 b 792 590 800 586 797 590 z "},"7":{"ha":853,"x_min":0,"x_max":0,"o":"m 0 972 l 92 793 l 558 793 l 217 0 l 419 0 l 839 972 z "},"8":{"ha":885,"x_min":0,"x_max":0,"o":"m 750 793 l 842 972 l 242 972 l 79 793 l 79 0 l 375 0 l 333 185 l 264 185 l 264 406 l 557 406 b 563 407 558 406 561 406 l 563 185 l 385 185 l 433 0 l 747 0 l 747 753 l 563 753 l 563 589 b 557 590 561 589 558 590 l 264 590 l 264 793 z "},"9":{"ha":879,"x_min":0,"x_max":0,"o":"m 744 799 l 836 978 l 238 978 l 75 799 l 75 419 b 83 411 75 415 79 411 l 551 411 b 557 413 554 411 556 411 l 557 192 l 381 192 l 428 6 l 743 6 l 743 758 l 557 758 l 557 594 b 551 596 556 596 554 596 l 260 596 l 260 799 z m 74 192 l 74 6 l 371 6 l 321 192 z "},"\u0000":{"ha":0,"x_min":0,"x_max":0,"o":""},"\n":{"ha":0,"x_min":0,"x_max":0,"o":""}," ":{"ha":453,"x_min":0,"x_max":0,"o":""},"!":{"ha":351,"x_min":0,"x_max":0,"o":"m 82 232 l 82 0 l 267 0 l 269 304 z m 267 974 l 82 974 l 82 321 l 269 392 z "},"\"":{"ha":551,"x_min":0,"x_max":0,"o":"m 42 736 l 244 796 l 244 981 l 42 981 z m 308 981 l 308 736 l 511 796 l 511 981 z "},"“":{"ha":551,"x_min":0,"x_max":0,"o":"m 42 736 l 244 796 l 244 981 l 42 981 z m 308 981 l 308 736 l 511 796 l 511 981 z "},"”":{"ha":551,"x_min":0,"x_max":0,"o":"m 42 736 l 244 796 l 244 981 l 42 981 z m 308 981 l 308 736 l 511 796 l 511 981 z "},"#":{"ha":940,"x_min":0,"x_max":0,"o":"m 165 418 l 358 457 l 381 672 l 467 671 l 424 857 l 401 857 l 414 978 l 224 978 l 211 857 l 71 857 l 71 672 l 192 672 z m 700 358 l 706 407 l 513 368 l 511 358 l 422 360 l 488 172 l 490 172 l 471 0 l 657 0 l 678 172 l 874 172 l 874 357 z m 347 358 l 353 407 l 160 368 l 158 357 l 69 357 l 69 172 l 135 172 l 113 0 l 304 0 l 324 172 l 432 172 l 372 358 z m 544 669 l 518 418 l 711 457 l 735 671 l 874 672 l 874 857 l 754 857 l 767 978 l 576 978 l 564 857 l 475 857 l 518 669 z "},"$":{"ha":756,"x_min":0,"x_max":0,"o":"m 626 746 l 701 894 l 443 894 l 443 976 l 257 929 l 257 894 l 207 894 l 74 746 l 74 436 b 82 426 74 431 76 426 l 465 426 b 471 429 468 426 469 428 l 471 247 l 325 247 l 364 96 l 317 96 l 276 247 l 72 247 l 72 93 l 257 93 l 257 0 l 443 47 l 443 93 l 624 93 l 624 581 l 471 581 l 471 579 b 465 581 469 581 468 581 l 226 581 l 226 746 z "},"%":{"ha":721,"x_min":0,"x_max":0,"o":"m 468 972 l 49 0 l 251 0 l 671 972 z m 58 788 l 244 788 b 253 796 249 788 253 792 l 253 964 b 244 972 253 968 249 972 l 58 972 b 50 964 54 972 50 968 l 50 796 b 58 788 50 792 54 788 z m 661 185 l 475 185 b 467 176 471 185 467 182 l 467 8 b 475 0 467 4 471 0 l 661 0 b 669 8 665 0 669 4 l 669 176 b 661 185 669 182 665 185 z "},"&":{"ha":910,"x_min":0,"x_max":0,"o":"m 843 749 l 653 749 l 653 568 l 551 496 l 322 786 l 632 786 l 744 978 l 76 978 l 76 790 l 79 786 l 396 385 l 74 156 l 185 0 l 514 235 l 692 10 l 842 128 l 669 346 l 843 469 z m 265 504 l 74 504 l 74 196 l 265 332 z "},"'":{"ha":369,"x_min":0,"x_max":0,"o":"m 83 981 l 83 736 l 286 796 l 286 981 z "},"‘":{"ha":369,"x_min":0,"x_max":0,"o":"m 83 981 l 83 736 l 286 796 l 286 981 z "},"’":{"ha":369,"x_min":0,"x_max":0,"o":"m 83 981 l 83 736 l 286 796 l 286 981 z "},"(":{"ha":479,"x_min":0,"x_max":0,"o":"m 264 185 l 264 793 l 364 793 l 436 972 l 236 972 l 79 793 l 79 0 l 436 0 l 364 185 z "},")":{"ha":478,"x_min":0,"x_max":0,"o":"m 242 969 l 239 968 l 49 968 l 46 968 l 43 967 l 114 792 l 213 792 l 213 183 l 114 183 l 43 3 l 46 1 l 49 0 l 49 1 l 397 1 l 397 792 z "},"*":{"ha":501,"x_min":0,"x_max":0,"o":"m 457 943 l 254 943 l 250 935 l 246 943 l 43 943 l 149 700 l 43 457 l 246 457 l 250 465 l 254 457 l 457 457 l 351 700 z "},"+":{"ha":804,"x_min":0,"x_max":0,"o":"m 783 396 l 628 576 l 497 576 l 497 807 l 313 888 l 313 576 l 29 576 l 121 396 l 313 396 l 313 169 l 497 79 l 497 396 z "},",":{"ha":275,"x_min":0,"x_max":0,"o":"m 36 183 l 36 -61 l 239 -1 l 239 183 z "},"-":{"ha":807,"x_min":0,"x_max":0,"o":"m 626 556 l 28 556 l 119 376 l 782 376 z "},".":{"ha":275,"x_min":0,"x_max":0,"o":"m 231 185 l 44 185 b 36 176 40 185 36 182 l 36 8 b 44 0 36 4 40 0 l 231 0 b 239 8 235 0 239 4 l 239 176 b 231 185 239 182 235 185 z "},":":{"ha":306,"x_min":0,"x_max":0,"o":"m 246 383 l 60 383 b 51 375 56 383 51 381 l 51 207 b 60 199 51 203 56 199 l 246 199 b 254 207 250 199 254 203 l 254 375 b 246 383 254 381 250 383 z m 246 738 l 60 738 b 51 728 56 738 51 733 l 51 561 b 60 551 51 556 56 551 l 246 551 b 254 561 250 551 254 556 l 254 728 b 246 738 254 733 250 738 z "},";":{"ha":311,"x_min":0,"x_max":0,"o":"m 249 742 l 63 742 b 54 733 58 742 54 738 l 54 565 b 63 557 54 561 58 557 l 249 557 b 257 565 253 557 257 561 l 257 733 b 249 742 257 738 253 742 z m 54 139 l 257 199 l 257 383 l 54 383 z "},"<":{"ha":597,"x_min":0,"x_max":0,"o":"m 49 611 l 49 408 l 535 619 l 535 822 z m 85 375 l 535 179 l 535 382 l 318 476 z "},"=":{"ha":829,"x_min":0,"x_max":0,"o":"m 794 565 l 639 744 l 40 744 l 132 565 z m 40 397 l 132 218 l 794 218 l 639 397 z "},">":{"ha":597,"x_min":0,"x_max":0,"o":"m 61 382 l 61 179 l 547 390 l 547 593 z m 511 626 l 61 822 l 61 619 l 278 525 z "},"?":{"ha":818,"x_min":0,"x_max":0,"o":"m 596 974 l -3 974 l 89 794 l 574 794 l 574 592 l 271 592 l 271 296 l 456 361 l 456 407 l 750 407 b 760 415 756 407 760 410 l 760 794 z m 271 0 l 457 0 l 460 304 l 271 232 z "},"@":{"ha":936,"x_min":0,"x_max":0,"o":"m 296 972 l 139 793 l 139 208 l 324 208 l 324 793 l 804 793 l 894 972 z m 615 179 l 136 179 l 44 0 l 643 0 l 800 179 l 800 753 l 615 753 z m 400 211 l 419 303 l 510 304 l 488 408 l 443 408 l 464 510 l 435 650 l 447 650 l 542 211 l 601 211 l 486 750 l 404 750 l 432 650 l 433 650 l 340 211 z "},"A":{"ha":939,"x_min":0,"x_max":0,"o":"m 517 965 l 239 965 l 333 789 l 390 789 l 733 -7 l 936 -7 z m 357 346 l 439 532 l 336 774 l 1 -7 l 204 -7 l 278 160 l 600 161 l 522 346 z "},"À":{"ha":939,"x_min":0,"x_max":0,"o":"m 517 965 l 239 965 l 333 789 l 390 789 l 733 -7 l 936 -7 z m 357 346 l 439 532 l 336 774 l 1 -7 l 204 -7 l 278 160 l 600 161 l 522 346 z "},"Á":{"ha":939,"x_min":0,"x_max":0,"o":"m 517 965 l 239 965 l 333 789 l 390 789 l 733 -7 l 936 -7 z m 357 346 l 439 532 l 336 774 l 1 -7 l 204 -7 l 278 160 l 600 161 l 522 346 z "},"Â":{"ha":939,"x_min":0,"x_max":0,"o":"m 517 965 l 239 965 l 333 789 l 390 789 l 733 -7 l 936 -7 z m 357 346 l 439 532 l 336 774 l 1 -7 l 204 -7 l 278 160 l 600 161 l 522 346 z "},"Ã":{"ha":939,"x_min":0,"x_max":0,"o":"m 517 965 l 239 965 l 333 789 l 390 789 l 733 -7 l 936 -7 z m 357 346 l 439 532 l 336 774 l 1 -7 l 204 -7 l 278 160 l 600 161 l 522 346 z "},"Ä":{"ha":939,"x_min":0,"x_max":0,"o":"m 517 965 l 239 965 l 333 789 l 390 789 l 733 -7 l 936 -7 z m 357 346 l 439 532 l 336 774 l 1 -7 l 204 -7 l 278 160 l 600 161 l 522 346 z "},"Å":{"ha":939,"x_min":0,"x_max":0,"o":"m 517 965 l 239 965 l 333 789 l 390 789 l 733 -7 l 936 -7 z m 357 346 l 439 532 l 336 774 l 1 -7 l 204 -7 l 278 160 l 600 161 l 522 346 z "},"B":{"ha":863,"x_min":0,"x_max":0,"o":"m 624 965 l 25 965 l 117 786 l 601 786 l 601 583 l 344 583 b 336 575 339 583 336 579 l 336 407 b 344 399 336 403 339 399 l 778 399 b 788 407 783 399 788 403 l 788 786 z m 601 179 l 304 179 l 304 746 l 118 746 l 118 -8 l 304 -8 l 788 -7 l 788 346 l 601 346 z "},"C":{"ha":860,"x_min":0,"x_max":0,"o":"m 407 179 l 479 -7 l 833 -7 l 833 179 z m 261 179 l 261 786 l 742 786 l 832 965 l 233 965 l 76 786 l 76 -7 l 433 -7 l 361 179 z "},"Ç":{"ha":860,"x_min":0,"x_max":0,"o":"m 407 179 l 479 -7 l 833 -7 l 833 179 z m 261 179 l 261 786 l 742 786 l 832 965 l 233 965 l 76 786 l 76 -7 l 433 -7 l 361 179 z "},"D":{"ha":869,"x_min":0,"x_max":0,"o":"m 636 965 l 25 965 l 118 786 l 607 786 l 607 179 l 304 179 l 304 746 l 119 746 l 119 -8 l 304 -8 l 793 -7 l 793 786 z "},"E":{"ha":811,"x_min":0,"x_max":0,"o":"m 622 965 l 24 965 l 115 786 l 778 786 z m 349 578 b 340 569 344 578 340 574 l 340 401 b 349 393 340 397 344 393 l 581 393 b 589 401 585 393 589 397 l 589 569 b 581 578 589 574 585 578 z m 776 179 l 303 179 l 303 746 l 117 746 l 117 -8 l 303 -8 l 776 -7 b 786 1 782 -7 786 -3 l 786 169 b 776 179 786 175 782 179 z "},"È":{"ha":811,"x_min":0,"x_max":0,"o":"m 622 965 l 24 965 l 115 786 l 778 786 z m 349 578 b 340 569 344 578 340 574 l 340 401 b 349 393 340 397 344 393 l 581 393 b 589 401 585 393 589 397 l 589 569 b 581 578 589 574 585 578 z m 776 179 l 303 179 l 303 746 l 117 746 l 117 -8 l 303 -8 l 776 -7 b 786 1 782 -7 786 -3 l 786 169 b 776 179 786 175 782 179 z "},"É":{"ha":811,"x_min":0,"x_max":0,"o":"m 622 965 l 24 965 l 115 786 l 778 786 z m 349 578 b 340 569 344 578 340 574 l 340 401 b 349 393 340 397 344 393 l 581 393 b 589 401 585 393 589 397 l 589 569 b 581 578 589 574 585 578 z m 776 179 l 303 179 l 303 746 l 117 746 l 117 -8 l 303 -8 l 776 -7 b 786 1 782 -7 786 -3 l 786 169 b 776 179 786 175 782 179 z "},"Ê":{"ha":811,"x_min":0,"x_max":0,"o":"m 622 965 l 24 965 l 115 786 l 778 786 z m 349 578 b 340 569 344 578 340 574 l 340 401 b 349 393 340 397 344 393 l 581 393 b 589 401 585 393 589 397 l 589 569 b 581 578 589 574 585 578 z m 776 179 l 303 179 l 303 746 l 117 746 l 117 -8 l 303 -8 l 776 -7 b 786 1 782 -7 786 -3 l 786 169 b 776 179 786 175 782 179 z "},"Ë":{"ha":811,"x_min":0,"x_max":0,"o":"m 622 965 l 24 965 l 115 786 l 778 786 z m 349 578 b 340 569 344 578 340 574 l 340 401 b 349 393 340 397 344 393 l 581 393 b 589 401 585 393 589 397 l 589 569 b 581 578 589 574 585 578 z m 776 179 l 303 179 l 303 746 l 117 746 l 117 -8 l 303 -8 l 776 -7 b 786 1 782 -7 786 -3 l 786 169 b 776 179 786 175 782 179 z "},"F":{"ha":831,"x_min":0,"x_max":0,"o":"m 233 965 l 76 786 l 76 -7 l 261 -7 l 261 786 l 742 786 l 832 965 z m 293 578 l 293 393 l 624 393 l 551 578 z "},"G":{"ha":849,"x_min":0,"x_max":0,"o":"m 781 786 l 625 965 l 26 965 l 118 786 z m 774 583 l 340 583 b 331 575 335 583 331 579 l 331 407 b 340 399 331 403 335 399 l 597 399 l 597 179 l 300 179 l 300 746 l 114 746 l 114 -8 l 300 -8 l 782 -7 l 782 575 b 774 583 782 579 779 583 z "},"H":{"ha":868,"x_min":0,"x_max":0,"o":"m 303 -8 l 303 746 l 117 746 l 117 -8 z m 785 -7 l 785 346 l 600 346 l 600 -7 z m 600 965 l 600 583 l 386 583 l 333 399 l 785 399 l 785 965 z m 301 789 l 301 965 l 25 965 l 121 789 z "},"I":{"ha":353,"x_min":0,"x_max":0,"o":"m 82 346 l 82 -8 l 267 -8 l 269 406 z m 267 965 l 82 965 l 82 396 l 269 457 z "},"Ì":{"ha":353,"x_min":0,"x_max":0,"o":"m 82 346 l 82 -8 l 267 -8 l 269 406 z m 267 965 l 82 965 l 82 396 l 269 457 z "},"Í":{"ha":353,"x_min":0,"x_max":0,"o":"m 82 346 l 82 -8 l 267 -8 l 269 406 z m 267 965 l 82 965 l 82 396 l 269 457 z "},"Î":{"ha":353,"x_min":0,"x_max":0,"o":"m 82 346 l 82 -8 l 267 -8 l 269 406 z m 267 965 l 82 965 l 82 396 l 269 457 z "},"Ï":{"ha":353,"x_min":0,"x_max":0,"o":"m 82 346 l 82 -8 l 267 -8 l 269 406 z m 267 965 l 82 965 l 82 396 l 269 457 z "},"J":{"ha":782,"x_min":0,"x_max":0,"o":"m 517 746 l 517 179 l 381 179 l 465 -7 l 517 -8 l 701 -8 l 701 746 z m 218 179 l 218 399 l 33 399 l 33 -7 l 396 -7 l 318 179 z m 699 783 l 699 960 l 421 960 l 517 783 z "},"K":{"ha":811,"x_min":0,"x_max":0,"o":"m 749 700 l 749 978 l 564 978 l 564 596 l 265 596 l 265 658 l 83 718 l 81 4 l 265 4 l 265 410 l 564 410 l 564 4 l 749 4 l 749 304 l 567 411 l 567 589 z m 268 699 l 265 978 l 81 978 l 83 764 z "},"L":{"ha":794,"x_min":0,"x_max":0,"o":"m 494 190 l 418 4 l 782 4 l 782 190 z m 300 190 l 300 757 l 115 757 l 115 4 l 300 4 l 351 4 l 436 190 z m 299 794 l 299 971 l 22 971 l 118 794 z "},"M":{"ha":1072,"x_min":0,"x_max":0,"o":"m 185 978 l 78 792 l 78 4 l 263 4 l 263 792 l 957 792 l 1054 978 z m 425 4 l 610 4 l 613 342 l 425 272 z m 425 754 l 425 321 l 613 393 l 610 754 z m 765 4 l 951 4 l 954 342 l 765 272 z m 765 754 l 765 321 l 954 393 l 951 754 z "},"N":{"ha":856,"x_min":0,"x_max":0,"o":"m 832 978 l 233 978 l 76 797 l 76 4 l 261 4 l 261 797 l 742 797 z m 556 4 l 742 4 l 744 342 l 556 272 z m 556 321 l 744 393 l 742 754 l 556 754 z "},"Ñ":{"ha":856,"x_min":0,"x_max":0,"o":"m 832 978 l 233 978 l 76 797 l 76 4 l 261 4 l 261 797 l 742 797 z m 556 4 l 742 4 l 744 342 l 556 272 z m 556 321 l 744 393 l 742 754 l 556 754 z "},"O":{"ha":893,"x_min":0,"x_max":0,"o":"m 275 978 l 118 797 l 118 214 l 303 214 l 303 797 l 783 797 l 874 978 z m 594 185 l 115 185 l 24 4 l 622 4 l 779 185 l 779 757 l 594 757 z "},"Ò":{"ha":893,"x_min":0,"x_max":0,"o":"m 275 978 l 118 797 l 118 214 l 303 214 l 303 797 l 783 797 l 874 978 z m 594 185 l 115 185 l 24 4 l 622 4 l 779 185 l 779 757 l 594 757 z "},"Ó":{"ha":893,"x_min":0,"x_max":0,"o":"m 275 978 l 118 797 l 118 214 l 303 214 l 303 797 l 783 797 l 874 978 z m 594 185 l 115 185 l 24 4 l 622 4 l 779 185 l 779 757 l 594 757 z "},"Ô":{"ha":893,"x_min":0,"x_max":0,"o":"m 275 978 l 118 797 l 118 214 l 303 214 l 303 797 l 783 797 l 874 978 z m 594 185 l 115 185 l 24 4 l 622 4 l 779 185 l 779 757 l 594 757 z "},"Õ":{"ha":893,"x_min":0,"x_max":0,"o":"m 275 978 l 118 797 l 118 214 l 303 214 l 303 797 l 783 797 l 874 978 z m 594 185 l 115 185 l 24 4 l 622 4 l 779 185 l 779 757 l 594 757 z "},"Ö":{"ha":893,"x_min":0,"x_max":0,"o":"m 275 978 l 118 797 l 118 214 l 303 214 l 303 797 l 783 797 l 874 978 z m 594 185 l 115 185 l 24 4 l 622 4 l 779 185 l 779 757 l 594 757 z "},"Ø":{"ha":893,"x_min":0,"x_max":0,"o":"m 275 978 l 118 797 l 118 214 l 303 214 l 303 797 l 783 797 l 874 978 z m 594 185 l 115 185 l 24 4 l 622 4 l 779 185 l 779 757 l 594 757 z "},"P":{"ha":825,"x_min":0,"x_max":0,"o":"m 619 978 l 21 978 l 113 797 l 597 797 l 597 596 l 340 596 b 332 586 335 596 332 592 l 332 419 b 340 410 332 414 335 410 l 774 410 b 783 419 779 410 783 414 l 783 797 z m 300 4 l 300 757 l 114 757 l 114 4 z "},"Q":{"ha":894,"x_min":0,"x_max":0,"o":"m 233 978 l 119 797 l 119 214 l 304 214 l 304 797 l 785 797 l 875 978 z m 596 185 l 117 185 l 25 4 l 347 4 l 347 -171 l 532 -86 l 532 4 l 658 4 l 781 185 l 781 757 l 596 757 z "},"R":{"ha":858,"x_min":0,"x_max":0,"o":"m 619 978 l 21 978 l 113 797 l 597 797 l 597 596 l 340 596 b 332 586 335 596 332 592 l 332 419 b 340 410 332 414 335 410 l 597 410 l 597 4 l 783 4 l 783 319 l 635 410 l 774 410 b 783 419 779 410 783 414 l 783 797 z m 300 4 l 300 757 l 114 757 l 114 4 z "},"S":{"ha":850,"x_min":0,"x_max":0,"o":"m 738 797 l 829 978 l 231 978 l 68 797 l 68 419 b 76 410 68 414 72 410 l 544 410 b 550 413 547 410 549 411 l 550 190 l 374 190 l 421 4 l 736 4 l 736 596 l 550 596 l 550 593 b 544 596 549 594 547 596 l 253 596 l 253 797 z m 67 190 l 67 4 l 364 4 l 314 190 z "},"T":{"ha":701,"x_min":0,"x_max":0,"o":"m 590 978 l -10 978 l 82 797 l 703 797 z m 438 4 l 438 757 l 251 757 l 251 4 z "},"U":{"ha":865,"x_min":0,"x_max":0,"o":"m 597 190 l 300 190 l 300 757 l 114 757 l 114 4 l 206 4 l 722 4 l 782 4 l 782 399 l 597 399 z m 782 444 l 782 978 l 597 978 l 597 444 z m 299 800 l 299 978 l 22 978 l 118 800 z "},"Ù":{"ha":865,"x_min":0,"x_max":0,"o":"m 597 190 l 300 190 l 300 757 l 114 757 l 114 4 l 206 4 l 722 4 l 782 4 l 782 399 l 597 399 z m 782 444 l 782 978 l 597 978 l 597 444 z m 299 800 l 299 978 l 22 978 l 118 800 z "},"Ú":{"ha":865,"x_min":0,"x_max":0,"o":"m 597 190 l 300 190 l 300 757 l 114 757 l 114 4 l 206 4 l 722 4 l 782 4 l 782 399 l 597 399 z m 782 444 l 782 978 l 597 978 l 597 444 z m 299 800 l 299 978 l 22 978 l 118 800 z "},"Û":{"ha":865,"x_min":0,"x_max":0,"o":"m 597 190 l 300 190 l 300 757 l 114 757 l 114 4 l 206 4 l 722 4 l 782 4 l 782 399 l 597 399 z m 782 444 l 782 978 l 597 978 l 597 444 z m 299 800 l 299 978 l 22 978 l 118 800 z "},"Ü":{"ha":865,"x_min":0,"x_max":0,"o":"m 597 190 l 300 190 l 300 757 l 114 757 l 114 4 l 206 4 l 722 4 l 782 4 l 782 399 l 597 399 z m 782 444 l 782 978 l 597 978 l 597 444 z m 299 800 l 299 978 l 22 978 l 118 800 z "},"V":{"ha":1028,"x_min":0,"x_max":0,"o":"m -3 978 l 417 4 l 619 4 l 200 978 z m 828 978 l 543 324 l 644 82 l 1031 978 z "},"W":{"ha":1075,"x_min":0,"x_max":0,"o":"m 814 889 l 814 189 l 119 189 l 22 4 l 892 4 l 997 183 l 999 185 l 999 979 z m 651 974 l 465 889 l 464 633 l 651 703 z m 651 226 l 651 660 l 464 588 l 467 226 z m 310 979 l 125 889 l 122 639 l 310 708 z m 310 226 l 310 660 l 122 588 l 125 226 z "},"X":{"ha":700,"x_min":0,"x_max":0,"o":"m 49 978 l 468 4 l 671 4 l 253 978 z m 683 978 l 481 978 l 386 760 l 488 528 z m 17 4 l 219 4 l 314 222 l 213 456 z "},"Y":{"ha":853,"x_min":0,"x_max":0,"o":"m 585 978 l 585 190 l 532 190 l 490 4 l 769 4 l 769 978 z m 553 596 l 286 596 l 286 751 l 101 751 l 101 410 l 553 410 z m 285 800 l 285 978 l 8 978 l 104 800 z "},"Ý":{"ha":853,"x_min":0,"x_max":0,"o":"m 585 978 l 585 190 l 532 190 l 490 4 l 769 4 l 769 978 z m 553 596 l 286 596 l 286 751 l 101 751 l 101 410 l 553 410 z m 285 800 l 285 978 l 8 978 l 104 800 z "},"Ÿ":{"ha":853,"x_min":0,"x_max":0,"o":"m 585 978 l 585 190 l 532 190 l 490 4 l 769 4 l 769 978 z m 553 596 l 286 596 l 286 751 l 101 751 l 101 410 l 553 410 z m 285 800 l 285 978 l 8 978 l 104 800 z "},"Z":{"ha":850,"x_min":0,"x_max":0,"o":"m 299 413 b 304 410 300 411 301 410 l 772 410 b 782 419 778 410 782 414 l 782 797 l 618 978 l 19 978 l 111 797 l 596 797 l 596 596 l 304 596 b 299 593 301 596 300 594 l 299 596 l 113 596 l 113 4 l 428 4 l 475 190 l 299 190 z m 536 190 l 485 4 l 785 4 l 785 190 z "},"^":{"ha":706,"x_min":0,"x_max":0,"o":"m 463 932 l 260 932 l 471 446 l 674 446 z m 31 446 l 233 446 l 328 663 l 226 896 z "},"_":{"ha":1035,"x_min":0,"x_max":0,"o":"m 138 185 l 28 0 l 908 0 l 1006 185 z "},"a":{"ha":939,"x_min":0,"x_max":0,"o":"m 517 965 l 239 965 l 333 789 l 390 789 l 733 -7 l 936 -7 z m 357 346 l 439 532 l 336 774 l 1 -7 l 204 -7 l 278 160 l 600 161 l 522 346 z "},"à":{"ha":939,"x_min":0,"x_max":0,"o":"m 517 965 l 239 965 l 333 789 l 390 789 l 733 -7 l 936 -7 z m 357 346 l 439 532 l 336 774 l 1 -7 l 204 -7 l 278 160 l 600 161 l 522 346 z "},"á":{"ha":939,"x_min":0,"x_max":0,"o":"m 517 965 l 239 965 l 333 789 l 390 789 l 733 -7 l 936 -7 z m 357 346 l 439 532 l 336 774 l 1 -7 l 204 -7 l 278 160 l 600 161 l 522 346 z "},"â":{"ha":939,"x_min":0,"x_max":0,"o":"m 517 965 l 239 965 l 333 789 l 390 789 l 733 -7 l 936 -7 z m 357 346 l 439 532 l 336 774 l 1 -7 l 204 -7 l 278 160 l 600 161 l 522 346 z "},"ã":{"ha":939,"x_min":0,"x_max":0,"o":"m 517 965 l 239 965 l 333 789 l 390 789 l 733 -7 l 936 -7 z m 357 346 l 439 532 l 336 774 l 1 -7 l 204 -7 l 278 160 l 600 161 l 522 346 z "},"ä":{"ha":939,"x_min":0,"x_max":0,"o":"m 517 965 l 239 965 l 333 789 l 390 789 l 733 -7 l 936 -7 z m 357 346 l 439 532 l 336 774 l 1 -7 l 204 -7 l 278 160 l 600 161 l 522 346 z "},"å":{"ha":939,"x_min":0,"x_max":0,"o":"m 517 965 l 239 965 l 333 789 l 390 789 l 733 -7 l 936 -7 z m 357 346 l 439 532 l 336 774 l 1 -7 l 204 -7 l 278 160 l 600 161 l 522 346 z "},"b":{"ha":865,"x_min":0,"x_max":0,"o":"m 625 965 l 26 965 l 118 786 l 603 786 l 603 583 l 346 583 b 338 575 340 583 338 579 l 338 407 b 346 399 338 403 340 399 l 779 399 b 789 407 785 399 789 403 l 789 786 z m 603 179 l 306 179 l 306 746 l 119 746 l 119 -8 l 306 -8 l 789 -7 l 789 346 l 603 346 z "},"c":{"ha":861,"x_min":0,"x_max":0,"o":"m 407 179 l 479 -7 l 833 -7 l 833 179 z m 261 179 l 261 786 l 742 786 l 832 965 l 233 965 l 76 786 l 76 -7 l 433 -7 l 361 179 z "},"ç":{"ha":861,"x_min":0,"x_max":0,"o":"m 407 179 l 479 -7 l 833 -7 l 833 179 z m 261 179 l 261 786 l 742 786 l 832 965 l 233 965 l 76 786 l 76 -7 l 433 -7 l 361 179 z "},"d":{"ha":871,"x_min":0,"x_max":0,"o":"m 638 965 l 26 965 l 119 786 l 608 786 l 608 179 l 306 179 l 306 746 l 121 746 l 121 -8 l 306 -8 l 794 -7 l 794 786 z "},"e":{"ha":814,"x_min":0,"x_max":0,"o":"m 624 965 l 25 965 l 117 786 l 779 786 z m 350 578 b 342 569 346 578 342 574 l 342 401 b 350 393 342 397 346 393 l 582 393 b 590 401 586 393 590 397 l 590 569 b 582 578 590 574 586 578 z m 778 179 l 304 179 l 304 746 l 118 746 l 118 -8 l 304 -8 l 778 -7 b 788 1 783 -7 788 -3 l 788 169 b 778 179 788 175 783 179 z "},"è":{"ha":814,"x_min":0,"x_max":0,"o":"m 624 965 l 25 965 l 117 786 l 779 786 z m 350 578 b 342 569 346 578 342 574 l 342 401 b 350 393 342 397 346 393 l 582 393 b 590 401 586 393 590 397 l 590 569 b 582 578 590 574 586 578 z m 778 179 l 304 179 l 304 746 l 118 746 l 118 -8 l 304 -8 l 778 -7 b 788 1 783 -7 788 -3 l 788 169 b 778 179 788 175 783 179 z "},"é":{"ha":814,"x_min":0,"x_max":0,"o":"m 624 965 l 25 965 l 117 786 l 779 786 z m 350 578 b 342 569 346 578 342 574 l 342 401 b 350 393 342 397 346 393 l 582 393 b 590 401 586 393 590 397 l 590 569 b 582 578 590 574 586 578 z m 778 179 l 304 179 l 304 746 l 118 746 l 118 -8 l 304 -8 l 778 -7 b 788 1 783 -7 788 -3 l 788 169 b 778 179 788 175 783 179 z "},"ê":{"ha":814,"x_min":0,"x_max":0,"o":"m 624 965 l 25 965 l 117 786 l 779 786 z m 350 578 b 342 569 346 578 342 574 l 342 401 b 350 393 342 397 346 393 l 582 393 b 590 401 586 393 590 397 l 590 569 b 582 578 590 574 586 578 z m 778 179 l 304 179 l 304 746 l 118 746 l 118 -8 l 304 -8 l 778 -7 b 788 1 783 -7 788 -3 l 788 169 b 778 179 788 175 783 179 z "},"ë":{"ha":814,"x_min":0,"x_max":0,"o":"m 624 965 l 25 965 l 117 786 l 779 786 z m 350 578 b 342 569 346 578 342 574 l 342 401 b 350 393 342 397 346 393 l 582 393 b 590 401 586 393 590 397 l 590 569 b 582 578 590 574 586 578 z m 778 179 l 304 179 l 304 746 l 118 746 l 118 -8 l 304 -8 l 778 -7 b 788 1 783 -7 788 -3 l 788 169 b 778 179 788 175 783 179 z "},"f":{"ha":832,"x_min":0,"x_max":0,"o":"m 233 965 l 76 786 l 76 -7 l 261 -7 l 261 786 l 742 786 l 832 965 z m 293 578 l 293 393 l 624 393 l 551 578 z "},"g":{"ha":850,"x_min":0,"x_max":0,"o":"m 782 786 l 626 965 l 28 965 l 119 786 z m 775 583 l 342 583 b 332 575 336 583 332 579 l 332 407 b 342 399 332 403 336 399 l 599 399 l 599 179 l 301 179 l 301 746 l 115 746 l 115 -8 l 301 -8 l 783 -7 l 783 575 b 775 583 783 579 781 583 z "},"h":{"ha":871,"x_min":0,"x_max":0,"o":"m 304 -8 l 304 746 l 118 746 l 118 -8 z m 786 -7 l 786 346 l 601 346 l 601 -7 z m 601 965 l 601 583 l 388 583 l 335 399 l 786 399 l 786 965 z m 303 789 l 303 965 l 26 965 l 122 789 z "},"i":{"ha":354,"x_min":0,"x_max":0,"o":"m 83 346 l 83 -8 l 268 -8 l 271 406 z m 268 965 l 83 965 l 83 396 l 271 457 z "},"ì":{"ha":354,"x_min":0,"x_max":0,"o":"m 83 346 l 83 -8 l 268 -8 l 271 406 z m 268 965 l 83 965 l 83 396 l 271 457 z "},"í":{"ha":354,"x_min":0,"x_max":0,"o":"m 83 346 l 83 -8 l 268 -8 l 271 406 z m 268 965 l 83 965 l 83 396 l 271 457 z "},"î":{"ha":354,"x_min":0,"x_max":0,"o":"m 83 346 l 83 -8 l 268 -8 l 271 406 z m 268 965 l 83 965 l 83 396 l 271 457 z "},"ï":{"ha":354,"x_min":0,"x_max":0,"o":"m 83 346 l 83 -8 l 268 -8 l 271 406 z m 268 965 l 83 965 l 83 396 l 271 457 z "},"j":{"ha":783,"x_min":0,"x_max":0,"o":"m 517 746 l 517 179 l 381 179 l 465 -7 l 517 -8 l 701 -8 l 701 746 z m 218 179 l 218 399 l 33 399 l 33 -7 l 396 -7 l 318 179 z m 699 783 l 699 960 l 421 960 l 517 783 z "},"k":{"ha":814,"x_min":0,"x_max":0,"o":"m 750 700 l 750 978 l 565 978 l 565 596 l 267 596 l 267 658 l 85 718 l 82 4 l 267 4 l 267 410 l 565 410 l 565 4 l 750 4 l 750 304 l 568 411 l 568 589 z m 269 699 l 267 978 l 82 978 l 85 764 z "},"l":{"ha":799,"x_min":0,"x_max":0,"o":"m 497 190 l 421 4 l 785 4 l 785 190 z m 303 190 l 303 757 l 118 757 l 118 4 l 303 4 l 354 4 l 439 190 z m 301 794 l 301 971 l 25 971 l 121 794 z "},"m":{"ha":1075,"x_min":0,"x_max":0,"o":"m 185 978 l 78 792 l 78 4 l 263 4 l 263 792 l 957 792 l 1054 978 z m 425 4 l 610 4 l 613 342 l 425 272 z m 425 754 l 425 321 l 613 393 l 610 754 z m 765 4 l 951 4 l 954 342 l 765 272 z m 765 754 l 765 321 l 954 393 l 951 754 z "},"n":{"ha":861,"x_min":0,"x_max":0,"o":"m 833 978 l 235 978 l 78 797 l 78 4 l 263 4 l 263 797 l 743 797 z m 557 4 l 743 4 l 746 342 l 557 272 z m 557 321 l 746 393 l 743 754 l 557 754 z "},"ñ":{"ha":861,"x_min":0,"x_max":0,"o":"m 833 978 l 235 978 l 78 797 l 78 4 l 263 4 l 263 797 l 743 797 z m 557 4 l 743 4 l 746 342 l 557 272 z m 557 321 l 746 393 l 743 754 l 557 754 z "},"o":{"ha":897,"x_min":0,"x_max":0,"o":"m 276 978 l 119 797 l 119 214 l 304 214 l 304 797 l 785 797 l 875 978 z m 596 185 l 117 185 l 25 4 l 624 4 l 781 185 l 781 757 l 596 757 z "},"ò":{"ha":897,"x_min":0,"x_max":0,"o":"m 276 978 l 119 797 l 119 214 l 304 214 l 304 797 l 785 797 l 875 978 z m 596 185 l 117 185 l 25 4 l 624 4 l 781 185 l 781 757 l 596 757 z "},"ó":{"ha":897,"x_min":0,"x_max":0,"o":"m 276 978 l 119 797 l 119 214 l 304 214 l 304 797 l 785 797 l 875 978 z m 596 185 l 117 185 l 25 4 l 624 4 l 781 185 l 781 757 l 596 757 z "},"ô":{"ha":897,"x_min":0,"x_max":0,"o":"m 276 978 l 119 797 l 119 214 l 304 214 l 304 797 l 785 797 l 875 978 z m 596 185 l 117 185 l 25 4 l 624 4 l 781 185 l 781 757 l 596 757 z "},"õ":{"ha":897,"x_min":0,"x_max":0,"o":"m 276 978 l 119 797 l 119 214 l 304 214 l 304 797 l 785 797 l 875 978 z m 596 185 l 117 185 l 25 4 l 624 4 l 781 185 l 781 757 l 596 757 z "},"ö":{"ha":897,"x_min":0,"x_max":0,"o":"m 276 978 l 119 797 l 119 214 l 304 214 l 304 797 l 785 797 l 875 978 z m 596 185 l 117 185 l 25 4 l 624 4 l 781 185 l 781 757 l 596 757 z "},"ø":{"ha":897,"x_min":0,"x_max":0,"o":"m 276 978 l 119 797 l 119 214 l 304 214 l 304 797 l 785 797 l 875 978 z m 596 185 l 117 185 l 25 4 l 624 4 l 781 185 l 781 757 l 596 757 z "},"p":{"ha":831,"x_min":0,"x_max":0,"o":"m 624 978 l 25 978 l 117 797 l 601 797 l 601 596 l 344 596 b 336 586 339 596 336 592 l 336 419 b 344 410 336 414 339 410 l 778 410 b 788 419 783 410 788 414 l 788 797 z m 304 4 l 304 757 l 118 757 l 118 4 z "},"q":{"ha":897,"x_min":0,"x_max":0,"o":"m 233 978 l 119 797 l 119 214 l 304 214 l 304 797 l 785 797 l 875 978 z m 596 185 l 117 185 l 25 4 l 347 4 l 347 -171 l 532 -86 l 532 4 l 658 4 l 781 185 l 781 757 l 596 757 z "},"r":{"ha":863,"x_min":0,"x_max":0,"o":"m 624 978 l 25 978 l 117 797 l 601 797 l 601 596 l 344 596 b 336 586 339 596 336 592 l 336 419 b 344 410 336 414 339 410 l 601 410 l 601 4 l 788 4 l 788 319 l 639 410 l 778 410 b 788 419 783 410 788 414 l 788 797 z m 304 4 l 304 757 l 118 757 l 118 4 z "},"s":{"ha":854,"x_min":0,"x_max":0,"o":"m 739 797 l 831 978 l 232 978 l 69 797 l 69 419 b 78 410 69 414 74 410 l 546 410 b 551 413 549 410 550 411 l 551 190 l 375 190 l 422 4 l 738 4 l 738 596 l 551 596 l 551 593 b 546 596 550 594 549 596 l 254 596 l 254 797 z m 68 190 l 68 4 l 365 4 l 315 190 z "},"t":{"ha":707,"x_min":0,"x_max":0,"o":"m 594 978 l -6 978 l 86 797 l 707 797 z m 442 4 l 442 757 l 256 757 l 256 4 z "},"u":{"ha":869,"x_min":0,"x_max":0,"o":"m 600 190 l 303 190 l 303 757 l 117 757 l 117 4 l 208 4 l 725 4 l 785 4 l 785 399 l 600 399 z m 785 444 l 785 978 l 600 978 l 600 444 z m 301 800 l 301 978 l 25 978 l 121 800 z "},"ù":{"ha":869,"x_min":0,"x_max":0,"o":"m 600 190 l 303 190 l 303 757 l 117 757 l 117 4 l 208 4 l 725 4 l 785 4 l 785 399 l 600 399 z m 785 444 l 785 978 l 600 978 l 600 444 z m 301 800 l 301 978 l 25 978 l 121 800 z "},"ú":{"ha":869,"x_min":0,"x_max":0,"o":"m 600 190 l 303 190 l 303 757 l 117 757 l 117 4 l 208 4 l 725 4 l 785 4 l 785 399 l 600 399 z m 785 444 l 785 978 l 600 978 l 600 444 z m 301 800 l 301 978 l 25 978 l 121 800 z "},"û":{"ha":869,"x_min":0,"x_max":0,"o":"m 600 190 l 303 190 l 303 757 l 117 757 l 117 4 l 208 4 l 725 4 l 785 4 l 785 399 l 600 399 z m 785 444 l 785 978 l 600 978 l 600 444 z m 301 800 l 301 978 l 25 978 l 121 800 z "},"ü":{"ha":869,"x_min":0,"x_max":0,"o":"m 600 190 l 303 190 l 303 757 l 117 757 l 117 4 l 208 4 l 725 4 l 785 4 l 785 399 l 600 399 z m 785 444 l 785 978 l 600 978 l 600 444 z m 301 800 l 301 978 l 25 978 l 121 800 z "},"v":{"ha":1033,"x_min":0,"x_max":0,"o":"m 0 978 l 419 4 l 622 4 l 203 978 z m 831 978 l 546 324 l 647 82 l 1033 978 z "},"w":{"ha":1078,"x_min":0,"x_max":0,"o":"m 815 889 l 815 189 l 121 189 l 24 4 l 893 4 l 999 183 l 1000 185 l 1000 979 z m 653 974 l 467 889 l 465 633 l 653 703 z m 653 226 l 653 660 l 465 588 l 468 226 z m 311 979 l 126 889 l 124 639 l 311 708 z m 311 226 l 311 660 l 124 588 l 126 226 z "},"x":{"ha":704,"x_min":0,"x_max":0,"o":"m 50 978 l 469 4 l 672 4 l 254 978 z m 685 978 l 482 978 l 388 760 l 489 528 z m 18 4 l 221 4 l 315 222 l 214 456 z "},"y":{"ha":857,"x_min":0,"x_max":0,"o":"m 588 978 l 588 190 l 535 190 l 493 4 l 772 4 l 772 978 z m 556 596 l 289 596 l 289 751 l 104 751 l 104 410 l 556 410 z m 288 800 l 288 978 l 11 978 l 107 800 z "},"ý":{"ha":857,"x_min":0,"x_max":0,"o":"m 588 978 l 588 190 l 535 190 l 493 4 l 772 4 l 772 978 z m 556 596 l 289 596 l 289 751 l 104 751 l 104 410 l 556 410 z m 288 800 l 288 978 l 11 978 l 107 800 z "},"ÿ":{"ha":857,"x_min":0,"x_max":0,"o":"m 588 978 l 588 190 l 535 190 l 493 4 l 772 4 l 772 978 z m 556 596 l 289 596 l 289 751 l 104 751 l 104 410 l 556 410 z m 288 800 l 288 978 l 11 978 l 107 800 z "},"z":{"ha":854,"x_min":0,"x_max":0,"o":"m 301 413 b 307 410 303 411 304 410 l 775 410 b 785 419 781 410 785 414 l 785 797 l 621 978 l 22 978 l 114 797 l 599 797 l 599 596 l 307 596 b 301 593 304 596 303 594 l 301 596 l 115 596 l 115 4 l 431 4 l 478 190 l 301 190 z m 539 190 l 488 4 l 788 4 l 788 190 z "}," ":{"ha":453,"x_min":0,"x_max":0,"o":""},"­":{"ha":0,"x_min":0,"x_max":0,"o":""}}}
